<?xml version="1.0" encoding="utf-8"?>
<!-- Generator: Adobe Illustrator 19.0.0, SVG Export Plug-In . SVG Version: 6.00 Build 0)  -->
<svg version="1.1" id="Layer_1" xmlns="http://www.w3.org/2000/svg" xmlns:xlink="http://www.w3.org/1999/xlink" x="0px" y="0px"
	 viewBox="0 0 536.7 268" style="enable-background:new 0 0 536.7 268;" xml:space="preserve">
<style type="text/css">
	.st0{fill:#422B5E;}
	.st1{fill:#D8D0B0;}
	.st2{fill:#483A96;}
	.st3{fill:#D2B9D9;}
	.st4{fill:#775BA6;}
	.st5{fill:#EF4274;}
	.st6{fill:#9CB03B;}
	.st7{fill:#F1F2F2;}
	.st8{fill:#FDBD33;}
	.st9{fill:#F15E22;}
	.st10{fill:#9C2D36;}
	.st11{fill:#1CA5B0;}
	.st12{fill:#464C53;}
	.st13{fill:#F1573E;}
	.st14{fill:#BC2028;}
	.st15{fill:#FFD01F;}
	.st16{fill:#ED8E22;}
</style>
<g id="XMLID_1_">
	<g id="XMLID_16_">
		<g id="XMLID_34_">
			<path id="XMLID_38_" class="st0" d="M190.3,228.7V47.3c0-5.3-4.3-9.7-9.7-9.7h-11.1c-5.3,0-9.7,4.3-9.7,9.7v181.3H190.3z"/>
			<rect id="XMLID_37_" x="159.9" y="49.8" class="st1" width="30.4" height="21"/>
			<rect id="XMLID_36_" x="159.9" y="100" class="st1" width="30.4" height="19.9"/>
			<rect id="XMLID_35_" x="159.9" y="213.2" class="st1" width="30.4" height="15.5"/>
		</g>
		<g id="XMLID_29_">
			<path id="XMLID_33_" class="st2" d="M159.9,228.7V61.1c0-4.2-3.4-7.5-7.5-7.5h-14.7c-4.2,0-7.5,3.4-7.5,7.5v167.6H159.9z"/>
			<rect id="XMLID_32_" x="130" y="83.3" class="st3" width="29.8" height="13"/>
			<rect id="XMLID_31_" x="130" y="166.2" class="st3" width="29.8" height="12.1"/>
			<rect id="XMLID_30_" x="130" y="199.8" class="st3" width="29.8" height="28.9"/>
		</g>
		<g id="XMLID_23_">
			<path id="XMLID_28_" class="st4" d="M64.4,228.7L88,62.7c0.6-4.1-2.3-7.9-6.4-8.5l-23.8-3.4c-4.1-0.6-7.9,2.3-8.5,6.4L25.7,223.2
				L64.4,228.7z"/>
			
				<rect id="XMLID_27_" x="31.7" y="139.5" transform="matrix(-0.1407 0.99 -0.99 -0.1407 219.6781 127.4125)" class="st5" width="45.7" height="39.1"/>
			
				<rect id="XMLID_26_" x="56.8" y="94.3" transform="matrix(-0.1407 0.9901 -0.9901 -0.1407 182.2556 69.4885)" class="st5" width="8.4" height="39.1"/>
			
				<rect id="XMLID_25_" x="44.1" y="183.7" transform="matrix(-0.1407 0.99 -0.99 -0.1407 256.3348 184.1498)" class="st5" width="8.4" height="39.1"/>
			<circle id="XMLID_24_" class="st5" cx="65.2" cy="83.6" r="8.4"/>
		</g>
		<g id="XMLID_17_">
			<path id="XMLID_22_" class="st6" d="M131.3,228.7v-181c0-4.5-3.6-8.1-8.1-8.1h-26c-4.5,0-8.1,3.6-8.1,8.1v181H131.3z"/>
			<rect id="XMLID_21_" x="89" y="74" class="st1" width="42.3" height="12.1"/>
			<rect id="XMLID_20_" x="89" y="180.2" class="st1" width="42.3" height="12.1"/>
			<rect id="XMLID_19_" x="89" y="205.4" class="st1" width="42.3" height="12.1"/>
			<path id="XMLID_18_" class="st1" d="M117.3,160.7c0,4.4-3.5,7.9-7.9,7.9h-0.2c-4.4,0-7.9-3.5-7.9-7.9v-47.2
				c0-4.4,3.5-7.9,7.9-7.9h0.2c4.4,0,7.9,3.5,7.9,7.9V160.7z"/>
		</g>
	</g>
	<path id="XMLID_15_" class="st7" d="M387.6,182.7H372c-7.7,0-13.6,4.5-13.6,9.9v13c0,5.4,6,10,13.6,10h15.6h112.8v-33H387.6z"/>
	<path id="XMLID_14_" class="st8" d="M372,215.7c-7.7,0-13.6-4.6-13.6-10v-13c0-5.4,6-9.9,13.6-9.9h127.9h3.7c2.5,0,4.7-1.9,4.7-4.4
		V178c0-2.5-2.2-4.3-4.7-4.3h-34.9H362.4c-8.5,0-15.1,6.6-15.1,15.2v20.6c0,8.5,6.6,15.3,15.1,15.3h106.3h34.9
		c2.5,0,4.7-1.9,4.7-4.4V220c0-2.5-2.2-4.3-4.7-4.3h-3.7H372z"/>
	<path id="XMLID_13_" class="st9" d="M377,215.4h-5c-7.7,0-13.9-4.4-13.9-9.8v-13c0-5.4,6.2-9.8,13.9-9.8h5v-9.4h-14.6
		c-8.5,0-15.4,6.9-15.4,15.4v20.6c0,8.5,6.9,15.4,15.4,15.4H377V215.4z"/>
	<path id="XMLID_11_" class="st7" d="M387.6,79.7H372c-7.7,0-13.6,4.6-13.6,10v13c0,5.4,6,9.9,13.6,9.9h15.6h112.8v-33H387.6z"/>
	<path id="XMLID_10_" class="st9" d="M372,112.7c-7.7,0-13.6-4.5-13.6-9.9v-13c0-5.4,6-10,13.6-10h127.9h3.7c2.5,0,4.7-1.8,4.7-4.3
		v-0.3c0-2.5-2.2-4.4-4.7-4.4h-34.9H362.4c-8.5,0-15.1,6.7-15.1,15.3v20.6c0,8.5,6.6,15.2,15.1,15.2h106.3h34.9
		c2.5,0,4.7-1.8,4.7-4.3v-0.3c0-2.5-2.2-4.4-4.7-4.4h-3.7H372z"/>
	<path id="XMLID_9_" class="st10" d="M377,112.5h-5c-7.7,0-13.9-4.4-13.9-9.8v-13c0-5.4,6.2-9.8,13.9-9.8h5v-9.4h-14.6
		c-8.5,0-15.4,6.9-15.4,15.4v20.6c0,8.5,6.9,15.4,15.4,15.4H377V112.5z"/>
	<path id="XMLID_7_" class="st7" d="M469.3,163.7h15.6c7.7,0,14.5-4.1,14.5-9.5v-13c0-5.4-6.8-9.5-14.5-9.5h-15.6h-112v32H469.3z"/>
	<path id="XMLID_6_" class="st11" d="M484.9,131.7c7.7,0,14.5,4.1,14.5,9.5v13c0,5.4-6.8,9.5-14.5,9.5H357h-3.7
		c-2.5,0-3.9,2.3-3.9,4.9v0.3c0,2.5,1.4,4.9,3.9,4.9h34.9h106.3c8.5,0,15.9-7.2,15.9-15.7v-20.6c0-8.5-7.4-15.7-15.9-15.7H388.1
		h-34.9c-2.5,0-3.9,2.3-3.9,4.9v0.3c0,2.5,1.4,4.9,3.9,4.9h3.7H484.9z"/>
	<path id="XMLID_5_" class="st12" d="M479.9,131.4h5c7.7,0,13.9,4.4,13.9,9.8v13c0,5.4-6.2,9.8-13.9,9.8h-5v9.4h14.6
		c8.5,0,15.4-6.9,15.4-15.4v-20.6c0-8.5-6.9-15.4-15.4-15.4h-14.6V131.4z"/>
	<g id="XMLID_39_">
		<g id="XMLID_57_">
			<path id="XMLID_61_" class="st13" d="M307.8,227.7V47.8c0-4.5-3.6-8.1-8.1-8.1h-15.8c-4.5,0-8.1,3.6-8.1,8.1v179.9H307.8z"/>
			<rect id="XMLID_60_" x="275.8" y="71.7" class="st14" width="32" height="14"/>
			<rect id="XMLID_59_" x="275.8" y="160.7" class="st14" width="32" height="13"/>
			<rect id="XMLID_58_" x="275.8" y="196.7" class="st14" width="32" height="31"/>
		</g>
		<g id="XMLID_51_">
			<path id="XMLID_56_" class="st11" d="M347.2,227.7V63.4c0-4.8-3.9-8.7-8.7-8.7h-21.9c-4.8,0-8.7,3.9-8.7,8.7v164.3H347.2z"/>
			<rect id="XMLID_55_" x="307.8" y="65.7" class="st12" width="39.4" height="19"/>
			<rect id="XMLID_54_" x="307.8" y="151.7" class="st12" width="39.4" height="18"/>
			<rect id="XMLID_53_" x="307.8" y="213.7" class="st12" width="39.4" height="14"/>
			<circle id="XMLID_52_" class="st12" cx="327.5" cy="116.7" r="13"/>
		</g>
		<g id="XMLID_45_">
			<path id="XMLID_50_" class="st9" d="M231.8,227.7V47.8c0-4.5-3.6-8.1-8.1-8.1h-25.8c-4.5,0-8.1,3.6-8.1,8.1v179.9H231.8z"/>
			<rect id="XMLID_49_" x="189.8" y="130.7" class="st10" width="42" height="49"/>
			<rect id="XMLID_48_" x="189.8" y="101.7" class="st10" width="42" height="9"/>
			<rect id="XMLID_47_" x="189.8" y="198.7" class="st10" width="42" height="9"/>
			<circle id="XMLID_46_" class="st10" cx="210.8" cy="73.7" r="9"/>
		</g>
		<g id="XMLID_40_">
			<path id="XMLID_44_" class="st15" d="M277.2,227.7V33.4c0-4.8-3.9-8.7-8.7-8.7h-27.9c-4.8,0-8.7,3.9-8.7,8.7v194.3H277.2z"/>
			<rect id="XMLID_43_" x="231.8" y="61.7" class="st16" width="45.4" height="24"/>
			<rect id="XMLID_42_" x="231.8" y="175.7" class="st16" width="45.4" height="40"/>
			<path id="XMLID_41_" class="st16" d="M262.3,155.2c0,4.7-3.8,8.5-8.5,8.5l0,0c-4.7,0-8.5-3.8-8.5-8.5v-51c0-4.7,3.8-8.5,8.5-8.5
				l0,0c4.7,0,8.5,3.8,8.5,8.5V155.2z"/>
		</g>
	</g>
</g>
</svg>
